<svg version="1.1" xmlns="http://www.w3.org/2000/svg" xmlns:xlink="http://www.w3.org/1999/xlink" width="614.919921875" height="624"><defs/><g><g transform="translate(-14,-22) scale(1,1)"><rect fill="#C0C0C0" stroke="none" x="47" y="47" width="112" height="80" opacity="0.2"/></g><g transform="translate(-14,-22) scale(1,1)"><rect fill="#ffd6ad" stroke="none" x="40" y="40" width="112" height="80"/></g><g transform="translate(-14,-22) scale(1,1)"><path fill="none" stroke="#000000" d="M 40 40 L 152 40 L 152 120 L 40 120 L 40 40 Z Z" stroke-miterlimit="10"/></g><g transform="translate(-14,-22) scale(1,1)"><path fill="none" stroke="#000000" d="M 40 65 L 152 65" stroke-miterlimit="10"/></g><g transform="translate(-14,-22) scale(1,1)"><path fill="none" stroke="#000000" d="M 40 75 L 152 75" stroke-miterlimit="10"/></g><g transform="translate(-14,-22) scale(1,1)"><g><path fill="none" stroke="none"/><text fill="#000000" stroke="none" font-family="Arial" font-size="13px" font-style="normal" font-weight="bold" text-decoration="none" x="64.2109375" y="59.5">Track4Run</text></g></g><g transform="translate(-14,-22) scale(1,1)"><rect fill="#C0C0C0" stroke="none" x="503" y="47" width="112" height="80" opacity="0.2"/></g><g transform="translate(-14,-22) scale(1,1)"><rect fill="#ffd6ad" stroke="none" x="496" y="40" width="112" height="80"/></g><g transform="translate(-14,-22) scale(1,1)"><path fill="none" stroke="#000000" d="M 496 40 L 608 40 L 608 120 L 496 120 L 496 40 Z Z" stroke-miterlimit="10"/></g><g transform="translate(-14,-22) scale(1,1)"><path fill="none" stroke="#000000" d="M 496 65 L 608 65" stroke-miterlimit="10"/></g><g transform="translate(-14,-22) scale(1,1)"><path fill="none" stroke="#000000" d="M 496 75 L 608 75" stroke-miterlimit="10"/></g><g transform="translate(-14,-22) scale(1,1)"><g><path fill="none" stroke="none"/><text fill="#000000" stroke="none" font-family="Arial" font-size="13px" font-style="normal" font-weight="bold" text-decoration="none" x="520.2109375" y="59.5">Track4Run</text></g></g><g transform="translate(-14,-22) scale(1,1)"><rect fill="#C0C0C0" stroke="none" x="31" y="471" width="120" height="80" opacity="0.2"/></g><g transform="translate(-14,-22) scale(1,1)"><rect fill="#ffd6ad" stroke="none" x="24" y="464" width="120" height="80"/></g><g transform="translate(-14,-22) scale(1,1)"><path fill="none" stroke="#000000" d="M 24 464 L 144 464 L 144 544 L 24 544 L 24 464 Z Z" stroke-miterlimit="10"/></g><g transform="translate(-14,-22) scale(1,1)"><path fill="none" stroke="#000000" d="M 24 489 L 144 489" stroke-miterlimit="10"/></g><g transform="translate(-14,-22) scale(1,1)"><path fill="none" stroke="#000000" d="M 24 499 L 144 499" stroke-miterlimit="10"/></g><g transform="translate(-14,-22) scale(1,1)"><g><path fill="none" stroke="none"/><text fill="#000000" stroke="none" font-family="Arial" font-size="13px" font-style="normal" font-weight="bold" text-decoration="none" x="38.83642578125" y="483.5">AutomatedSOS</text></g></g><g transform="translate(-14,-22) scale(1,1)"><rect fill="#C0C0C0" stroke="none" x="367" y="87" width="50.919921875" height="44" opacity="0.2"/></g><g transform="translate(-14,-22) scale(1,1)"><rect fill="#d8ffd8" stroke="none" x="360" y="80" width="50.919921875" height="44"/></g><g transform="translate(-14,-22) scale(1,1)"><path fill="none" stroke="#000000" d="M 360 80 L 410.919921875 80 L 410.919921875 124 L 360 124 L 360 80 Z Z" stroke-miterlimit="10"/></g><g transform="translate(-14,-22) scale(1,1)"><path fill="none" stroke="#000000" d="M 360 105 L 410.919921875 105" stroke-miterlimit="10"/></g><g transform="translate(-14,-22) scale(1,1)"><path fill="none" stroke="#000000" d="M 360 115 L 410.919921875 115" stroke-miterlimit="10"/></g><g transform="translate(-14,-22) scale(1,1)"><g><path fill="none" stroke="none"/><text fill="#000000" stroke="none" font-family="Arial" font-size="13px" font-style="normal" font-weight="bold" text-decoration="none" x="367.40087890625" y="99.5">Visitor</text></g></g><g transform="translate(-14,-22) scale(1,1)"><rect fill="#C0C0C0" stroke="none" x="359" y="207" width="50.919921875" height="44" opacity="0.2"/></g><g transform="translate(-14,-22) scale(1,1)"><rect fill="#d8ffd8" stroke="none" x="352" y="200" width="50.919921875" height="44"/></g><g transform="translate(-14,-22) scale(1,1)"><path fill="none" stroke="#000000" d="M 352 200 L 402.919921875 200 L 402.919921875 244 L 352 244 L 352 200 Z Z" stroke-miterlimit="10"/></g><g transform="translate(-14,-22) scale(1,1)"><path fill="none" stroke="#000000" d="M 352 225 L 402.919921875 225" stroke-miterlimit="10"/></g><g transform="translate(-14,-22) scale(1,1)"><path fill="none" stroke="#000000" d="M 352 235 L 402.919921875 235" stroke-miterlimit="10"/></g><g transform="translate(-14,-22) scale(1,1)"><g><path fill="none" stroke="none"/><text fill="#000000" stroke="none" font-family="Arial" font-size="13px" font-style="normal" font-weight="bold" text-decoration="none" x="363.736328125" y="219.5">User</text></g></g><g transform="translate(-14,-22) scale(1,1)"><rect fill="#C0C0C0" stroke="none" x="487" y="175" width="81.26171875" height="44" opacity="0.2"/></g><g transform="translate(-14,-22) scale(1,1)"><rect fill="#d8ffd8" stroke="none" x="480" y="168" width="81.26171875" height="44"/></g><g transform="translate(-14,-22) scale(1,1)"><path fill="none" stroke="#000000" d="M 480 168 L 561.26171875 168 L 561.26171875 212 L 480 212 L 480 168 Z Z" stroke-miterlimit="10"/></g><g transform="translate(-14,-22) scale(1,1)"><path fill="none" stroke="#000000" d="M 480 193 L 561.26171875 193" stroke-miterlimit="10"/></g><g transform="translate(-14,-22) scale(1,1)"><path fill="none" stroke="#000000" d="M 480 203 L 561.26171875 203" stroke-miterlimit="10"/></g><g transform="translate(-14,-22) scale(1,1)"><g><path fill="none" stroke="none"/><text fill="#000000" stroke="none" font-family="Arial" font-size="13px" font-style="normal" font-weight="bold" text-decoration="none" x="486.312255859375" y="187.5">MapService</text></g></g><g transform="translate(-14,-22) scale(1,1)"><rect fill="#C0C0C0" stroke="none" x="295" y="295" width="63.91357421875" height="44" opacity="0.2"/></g><g transform="translate(-14,-22) scale(1,1)"><rect fill="#d8ffd8" stroke="none" x="288" y="288" width="63.91357421875" height="44"/></g><g transform="translate(-14,-22) scale(1,1)"><path fill="none" stroke="#000000" d="M 288 288 L 351.91357421875 288 L 351.91357421875 332 L 288 332 L 288 288 Z Z" stroke-miterlimit="10"/></g><g transform="translate(-14,-22) scale(1,1)"><path fill="none" stroke="#000000" d="M 288 313 L 351.91357421875 313" stroke-miterlimit="10"/></g><g transform="translate(-14,-22) scale(1,1)"><path fill="none" stroke="#000000" d="M 288 323 L 351.91357421875 323" stroke-miterlimit="10"/></g><g transform="translate(-14,-22) scale(1,1)"><g><path fill="none" stroke="none"/><text fill="#000000" stroke="none" font-family="Arial" font-size="13px" font-style="normal" font-weight="bold" text-decoration="none" x="293.22998046875" y="307.5">D4HUser</text></g></g><g transform="translate(-14,-22) scale(1,1)"><rect fill="#C0C0C0" stroke="none" x="423" y="295" width="62.46630859375" height="44" opacity="0.2"/></g><g transform="translate(-14,-22) scale(1,1)"><rect fill="#d8ffd8" stroke="none" x="416" y="288" width="62.46630859375" height="44"/></g><g transform="translate(-14,-22) scale(1,1)"><path fill="none" stroke="#000000" d="M 416 288 L 478.46630859375 288 L 478.46630859375 332 L 416 332 L 416 288 Z Z" stroke-miterlimit="10"/></g><g transform="translate(-14,-22) scale(1,1)"><path fill="none" stroke="#000000" d="M 416 313 L 478.46630859375 313" stroke-miterlimit="10"/></g><g transform="translate(-14,-22) scale(1,1)"><path fill="none" stroke="#000000" d="M 416 323 L 478.46630859375 323" stroke-miterlimit="10"/></g><g transform="translate(-14,-22) scale(1,1)"><g><path fill="none" stroke="none"/><text fill="#000000" stroke="none" font-family="Arial" font-size="13px" font-style="normal" font-weight="bold" text-decoration="none" x="421.22998046875" y="307.5">T4RUser</text></g></g><g transform="translate(-14,-22) scale(1,1)"><rect fill="#C0C0C0" stroke="none" x="239" y="399" width="74.0126953125" height="44" opacity="0.2"/></g><g transform="translate(-14,-22) scale(1,1)"><rect fill="#d8ffd8" stroke="none" x="232" y="392" width="74.0126953125" height="44"/></g><g transform="translate(-14,-22) scale(1,1)"><path fill="none" stroke="#000000" d="M 232 392 L 306.0126953125 392 L 306.0126953125 436 L 232 436 L 232 392 Z Z" stroke-miterlimit="10"/></g><g transform="translate(-14,-22) scale(1,1)"><path fill="none" stroke="#000000" d="M 232 417 L 306.0126953125 417" stroke-miterlimit="10"/></g><g transform="translate(-14,-22) scale(1,1)"><path fill="none" stroke="#000000" d="M 232 427 L 306.0126953125 427" stroke-miterlimit="10"/></g><g transform="translate(-14,-22) scale(1,1)"><g><path fill="none" stroke="none"/><text fill="#000000" stroke="none" font-family="Arial" font-size="13px" font-style="normal" font-weight="bold" text-decoration="none" x="239.0263671875" y="411.5">ThirdParty</text></g></g><g transform="translate(-14,-22) scale(1,1)"><rect fill="#C0C0C0" stroke="none" x="351" y="399" width="69.6708984375" height="44" opacity="0.2"/></g><g transform="translate(-14,-22) scale(1,1)"><rect fill="#d8ffd8" stroke="none" x="344" y="392" width="69.6708984375" height="44"/></g><g transform="translate(-14,-22) scale(1,1)"><path fill="none" stroke="#000000" d="M 344 392 L 413.6708984375 392 L 413.6708984375 436 L 344 436 L 344 392 Z Z" stroke-miterlimit="10"/></g><g transform="translate(-14,-22) scale(1,1)"><path fill="none" stroke="#000000" d="M 344 417 L 413.6708984375 417" stroke-miterlimit="10"/></g><g transform="translate(-14,-22) scale(1,1)"><path fill="none" stroke="#000000" d="M 344 427 L 413.6708984375 427" stroke-miterlimit="10"/></g><g transform="translate(-14,-22) scale(1,1)"><g><path fill="none" stroke="none"/><text fill="#000000" stroke="none" font-family="Arial" font-size="13px" font-style="normal" font-weight="bold" text-decoration="none" x="351.372314453125" y="411.5">Individual</text></g></g><g transform="translate(-14,-22) scale(1,1)"><rect fill="#C0C0C0" stroke="none" x="431" y="399" width="69.68359375" height="44" opacity="0.2"/></g><g transform="translate(-14,-22) scale(1,1)"><rect fill="#d8ffd8" stroke="none" x="424" y="392" width="69.68359375" height="44"/></g><g transform="translate(-14,-22) scale(1,1)"><path fill="none" stroke="#000000" d="M 424 392 L 493.68359375 392 L 493.68359375 436 L 424 436 L 424 392 Z Z" stroke-miterlimit="10"/></g><g transform="translate(-14,-22) scale(1,1)"><path fill="none" stroke="#000000" d="M 424 417 L 493.68359375 417" stroke-miterlimit="10"/></g><g transform="translate(-14,-22) scale(1,1)"><path fill="none" stroke="#000000" d="M 424 427 L 493.68359375 427" stroke-miterlimit="10"/></g><g transform="translate(-14,-22) scale(1,1)"><g><path fill="none" stroke="none"/><text fill="#000000" stroke="none" font-family="Arial" font-size="13px" font-style="normal" font-weight="bold" text-decoration="none" x="430.302734375" y="411.5">Organizer</text></g></g><g transform="translate(-14,-22) scale(1,1)"><rect fill="#C0C0C0" stroke="none" x="575" y="399" width="50.919921875" height="44" opacity="0.2"/></g><g transform="translate(-14,-22) scale(1,1)"><rect fill="#d8ffd8" stroke="none" x="568" y="392" width="50.919921875" height="44"/></g><g transform="translate(-14,-22) scale(1,1)"><path fill="none" stroke="#000000" d="M 568 392 L 618.919921875 392 L 618.919921875 436 L 568 436 L 568 392 Z Z" stroke-miterlimit="10"/></g><g transform="translate(-14,-22) scale(1,1)"><path fill="none" stroke="#000000" d="M 568 417 L 618.919921875 417" stroke-miterlimit="10"/></g><g transform="translate(-14,-22) scale(1,1)"><path fill="none" stroke="#000000" d="M 568 427 L 618.919921875 427" stroke-miterlimit="10"/></g><g transform="translate(-14,-22) scale(1,1)"><g><path fill="none" stroke="none"/><text fill="#000000" stroke="none" font-family="Arial" font-size="13px" font-style="normal" font-weight="bold" text-decoration="none" x="578.285888671875" y="411.5">Race</text></g></g><g transform="translate(-14,-22) scale(1,1)"><rect fill="#C0C0C0" stroke="none" x="311" y="495" width="74.7490234375" height="44" opacity="0.2"/></g><g transform="translate(-14,-22) scale(1,1)"><rect fill="#d8ffd8" stroke="none" x="304" y="488" width="74.7490234375" height="44"/></g><g transform="translate(-14,-22) scale(1,1)"><path fill="none" stroke="#000000" d="M 304 488 L 378.7490234375 488 L 378.7490234375 532 L 304 532 L 304 488 Z Z" stroke-miterlimit="10"/></g><g transform="translate(-14,-22) scale(1,1)"><path fill="none" stroke="#000000" d="M 304 513 L 378.7490234375 513" stroke-miterlimit="10"/></g><g transform="translate(-14,-22) scale(1,1)"><path fill="none" stroke="#000000" d="M 304 523 L 378.7490234375 523" stroke-miterlimit="10"/></g><g transform="translate(-14,-22) scale(1,1)"><g><path fill="none" stroke="none"/><text fill="#000000" stroke="none" font-family="Arial" font-size="13px" font-style="normal" font-weight="bold" text-decoration="none" x="309.588623046875" y="507.5">ASOSUser</text></g></g><g transform="translate(-14,-22) scale(1,1)"><rect fill="#C0C0C0" stroke="none" x="415" y="495" width="54.5" height="44" opacity="0.2"/></g><g transform="translate(-14,-22) scale(1,1)"><rect fill="#d8ffd8" stroke="none" x="408" y="488" width="54.5" height="44"/></g><g transform="translate(-14,-22) scale(1,1)"><path fill="none" stroke="#000000" d="M 408 488 L 462.5 488 L 462.5 532 L 408 532 L 408 488 Z Z" stroke-miterlimit="10"/></g><g transform="translate(-14,-22) scale(1,1)"><path fill="none" stroke="#000000" d="M 408 513 L 462.5 513" stroke-miterlimit="10"/></g><g transform="translate(-14,-22) scale(1,1)"><path fill="none" stroke="#000000" d="M 408 523 L 462.5 523" stroke-miterlimit="10"/></g><g transform="translate(-14,-22) scale(1,1)"><g><path fill="none" stroke="none"/><text fill="#000000" stroke="none" font-family="Arial" font-size="13px" font-style="normal" font-weight="bold" text-decoration="none" x="413.931396484375" y="507.5">Runner</text></g></g><g transform="translate(-14,-22) scale(1,1)"><rect fill="#C0C0C0" stroke="none" x="31" y="599" width="125.33349609375" height="44" opacity="0.2"/></g><g transform="translate(-14,-22) scale(1,1)"><rect fill="#d8ffd8" stroke="none" x="24" y="592" width="125.33349609375" height="44"/></g><g transform="translate(-14,-22) scale(1,1)"><path fill="none" stroke="#000000" d="M 24 592 L 149.33349609375 592 L 149.33349609375 636 L 24 636 L 24 592 Z Z" stroke-miterlimit="10"/></g><g transform="translate(-14,-22) scale(1,1)"><path fill="none" stroke="#000000" d="M 24 617 L 149.33349609375 617" stroke-miterlimit="10"/></g><g transform="translate(-14,-22) scale(1,1)"><path fill="none" stroke="#000000" d="M 24 627 L 149.33349609375 627" stroke-miterlimit="10"/></g><g transform="translate(-14,-22) scale(1,1)"><g><path fill="none" stroke="none"/><text fill="#000000" stroke="none" font-family="Arial" font-size="13px" font-style="normal" font-weight="bold" text-decoration="none" x="32.4736328125" y="611.5">AmbulanceService</text></g></g><g transform="translate(-14,-22) scale(1,1)"><rect fill="#C0C0C0" stroke="none" x="119" y="295" width="50.919921875" height="44" opacity="0.2"/></g><g transform="translate(-14,-22) scale(1,1)"><rect fill="#d8ffd8" stroke="none" x="112" y="288" width="50.919921875" height="44"/></g><g transform="translate(-14,-22) scale(1,1)"><path fill="none" stroke="#000000" d="M 112 288 L 162.919921875 288 L 162.919921875 332 L 112 332 L 112 288 Z Z" stroke-miterlimit="10"/></g><g transform="translate(-14,-22) scale(1,1)"><path fill="none" stroke="#000000" d="M 112 313 L 162.919921875 313" stroke-miterlimit="10"/></g><g transform="translate(-14,-22) scale(1,1)"><path fill="none" stroke="#000000" d="M 112 323 L 162.919921875 323" stroke-miterlimit="10"/></g><g transform="translate(-14,-22) scale(1,1)"><g><path fill="none" stroke="none"/><text fill="#000000" stroke="none" font-family="Arial" font-size="13px" font-style="normal" font-weight="bold" text-decoration="none" x="119.391357421875" y="307.5">Signal</text></g></g><g transform="translate(-14,-22) scale(1,1)"><rect fill="#C0C0C0" stroke="none" x="119" y="191" width="50.919921875" height="44" opacity="0.2"/></g><g transform="translate(-14,-22) scale(1,1)"><rect fill="#d8ffd8" stroke="none" x="112" y="184" width="50.919921875" height="44"/></g><g transform="translate(-14,-22) scale(1,1)"><path fill="none" stroke="#000000" d="M 112 184 L 162.919921875 184 L 162.919921875 228 L 112 228 L 112 184 Z Z" stroke-miterlimit="10"/></g><g transform="translate(-14,-22) scale(1,1)"><path fill="none" stroke="#000000" d="M 112 209 L 162.919921875 209" stroke-miterlimit="10"/></g><g transform="translate(-14,-22) scale(1,1)"><path fill="none" stroke="#000000" d="M 112 219 L 162.919921875 219" stroke-miterlimit="10"/></g><g transform="translate(-14,-22) scale(1,1)"><g><path fill="none" stroke="none"/><text fill="#000000" stroke="none" font-family="Arial" font-size="13px" font-style="normal" font-weight="bold" text-decoration="none" x="117.591796875" y="203.5">Device</text></g></g><g transform="translate(-14,-22) scale(1,1)"><path fill="none" stroke="#000000" d="M 152 56 L 496 56" stroke-miterlimit="10"/></g><g transform="translate(-14,-22) scale(1,1)"><path fill="none" stroke="#000000" d="M 136 120 L 136 184" stroke-miterlimit="10"/></g><g transform="translate(-14,-22) scale(1,1)"><path fill="none" stroke="#000000" d="M 137 229 L 137 287" stroke-miterlimit="10"/></g><g transform="translate(-14,-22) scale(1,1)"><path fill="none" stroke="#000000" d="M 164 310 L 287 310" stroke-miterlimit="10"/></g><g transform="translate(-14,-22) scale(1,1)"><path fill="none" stroke="#000000" d="M 152 104 L 304 104 L 304 288" stroke-miterlimit="10"/></g><g transform="translate(-14,-22) scale(1,1)"><path fill="none" stroke="#000000" d="M 95 120 L 95 464" stroke-miterlimit="10"/></g><g transform="translate(-14,-22) scale(1,1)"><path fill="none" stroke="#000000" d="M 85 545 L 86 591" stroke-miterlimit="10"/></g><g transform="translate(-14,-22) scale(1,1)"><path fill="none" stroke="#000000" d="M 144 509 L 304 509" stroke-miterlimit="10"/></g><g transform="translate(-14,-22) scale(1,1)"><path fill="none" stroke="#000000" d="M 336 488 L 336 472 L 377 472 L 377 436" stroke-miterlimit="10"/></g><g transform="translate(-14,-22) scale(1,1)"><path fill="#FFFFFF" stroke="none" d="M 385.419035512032 456.3253497152483 L 377 436 L 368.580964487968 456.3253497152483"/></g><g transform="translate(-14,-22) scale(1,1)"><path fill="none" stroke="#000000" d="M 385.419035512032 456.3253497152483 L 377 436 L 368.580964487968 456.3253497152483 L 385.419035512032 456.3253497152483" stroke-miterlimit="10"/></g><g transform="translate(-14,-22) scale(1,1)"><path fill="none" stroke="#000000" d="M 424 488 L 424 472 L 377 472 L 377 436" stroke-miterlimit="10"/></g><g transform="translate(-14,-22) scale(1,1)"><path fill="#FFFFFF" stroke="none" d="M 385.419035512032 456.3253497152483 L 377 436 L 368.580964487968 456.3253497152483"/></g><g transform="translate(-14,-22) scale(1,1)"><path fill="none" stroke="#000000" d="M 385.419035512032 456.3253497152483 L 377 436 L 368.580964487968 456.3253497152483 L 385.419035512032 456.3253497152483" stroke-miterlimit="10"/></g><g transform="translate(-14,-22) scale(1,1)"><path fill="none" stroke="#000000" d="M 256 392 L 256 368 L 319 368 L 319 332" stroke-miterlimit="10"/></g><g transform="translate(-14,-22) scale(1,1)"><path fill="#FFFFFF" stroke="none" d="M 327.419035512032 352.3253497152483 L 319 332 L 310.580964487968 352.3253497152483"/></g><g transform="translate(-14,-22) scale(1,1)"><path fill="none" stroke="#000000" d="M 327.419035512032 352.3253497152483 L 319 332 L 310.580964487968 352.3253497152483 L 327.419035512032 352.3253497152483" stroke-miterlimit="10"/></g><g transform="translate(-14,-22) scale(1,1)"><path fill="none" stroke="#000000" d="M 368 392 L 368 368 L 319 368 L 319 332" stroke-miterlimit="10"/></g><g transform="translate(-14,-22) scale(1,1)"><path fill="#FFFFFF" stroke="none" d="M 327.419035512032 352.3253497152483 L 319 332 L 310.580964487968 352.3253497152483"/></g><g transform="translate(-14,-22) scale(1,1)"><path fill="none" stroke="#000000" d="M 327.419035512032 352.3253497152483 L 319 332 L 310.580964487968 352.3253497152483 L 327.419035512032 352.3253497152483" stroke-miterlimit="10"/></g><g transform="translate(-14,-22) scale(1,1)"><path fill="none" stroke="#000000" d="M 328 288 L 328 272 L 377 272 L 377 244" stroke-miterlimit="10"/></g><g transform="translate(-14,-22) scale(1,1)"><path fill="#FFFFFF" stroke="none" d="M 385.419035512032 264.3253497152483 L 377 244 L 368.580964487968 264.3253497152483"/></g><g transform="translate(-14,-22) scale(1,1)"><path fill="none" stroke="#000000" d="M 385.419035512032 264.3253497152483 L 377 244 L 368.580964487968 264.3253497152483 L 385.419035512032 264.3253497152483" stroke-miterlimit="10"/></g><g transform="translate(-14,-22) scale(1,1)"><path fill="none" stroke="#000000" d="M 440 288 L 440 272 L 377 272 L 377 244" stroke-miterlimit="10"/></g><g transform="translate(-14,-22) scale(1,1)"><path fill="#FFFFFF" stroke="none" d="M 385.419035512032 264.3253497152483 L 377 244 L 368.580964487968 264.3253497152483"/></g><g transform="translate(-14,-22) scale(1,1)"><path fill="none" stroke="#000000" d="M 385.419035512032 264.3253497152483 L 377 244 L 368.580964487968 264.3253497152483 L 385.419035512032 264.3253497152483" stroke-miterlimit="10"/></g><g transform="translate(-14,-22) scale(1,1)"><path fill="none" stroke="#000000" d="M 152 88 L 360 88" stroke-miterlimit="10"/></g><g transform="translate(-14,-22) scale(1,1)"><path fill="none" stroke="#000000" d="M 411 88 L 496 88" stroke-miterlimit="10"/></g><g transform="translate(-14,-22) scale(1,1)"><path fill="none" stroke="#000000" d="M 540 120 L 540 168" stroke-miterlimit="10"/></g><g transform="translate(-14,-22) scale(1,1)"><path fill="none" stroke="#000000" d="M 576 120 L 576 310 L 478 310" stroke-miterlimit="10"/></g><g transform="translate(-14,-22) scale(1,1)"><path fill="none" stroke="#000000" d="M 592 120 L 592 392" stroke-miterlimit="10"/></g><g transform="translate(-14,-22) scale(1,1)"><path fill="none" stroke="#000000" d="M 495 414 L 567 414" stroke-miterlimit="10"/></g><g transform="translate(-14,-22) scale(1,1)"><path fill="none" stroke="#000000" d="M 463 512 L 593 512 L 593 436" stroke-miterlimit="10"/></g><g transform="translate(-14,-22) scale(1,1)"><path fill="none" stroke="#000000" d="M 449 392 L 449 332" stroke-miterlimit="10"/></g><g transform="translate(-14,-22) scale(1,1)"><path fill="#FFFFFF" stroke="none" d="M 457.419035512032 352.3253497152483 L 449 332 L 440.580964487968 352.3253497152483"/></g><g transform="translate(-14,-22) scale(1,1)"><path fill="none" stroke="#000000" d="M 457.419035512032 352.3253497152483 L 449 332 L 440.580964487968 352.3253497152483 L 457.419035512032 352.3253497152483" stroke-miterlimit="10"/></g><g transform="translate(-14,-22) scale(1,1)"><g><path fill="none" stroke="none"/><text fill="#000000" stroke="none" font-family="Arial" font-size="13px" font-style="normal" font-weight="normal" text-decoration="none" x="253" y="50">exploits</text></g></g><g transform="translate(-14,-22) scale(1,1)"><g><path fill="none" stroke="none"/><text fill="#000000" stroke="none" font-family="Arial" font-size="13px" font-style="normal" font-weight="normal" text-decoration="none" x="205" y="82">registers</text></g></g><g transform="translate(-14,-22) scale(1,1)"><g><path fill="none" stroke="none"/><text fill="#000000" stroke="none" font-family="Arial" font-size="13px" font-style="normal" font-weight="normal" text-decoration="none" x="269" y="122">uses</text></g></g><g transform="translate(-14,-22) scale(1,1)"><g><path fill="none" stroke="none"/><text fill="#000000" stroke="none" font-family="Arial" font-size="13px" font-style="normal" font-weight="normal" text-decoration="none" x="149" y="154">receives data</text></g></g><g transform="translate(-14,-22) scale(1,1)"><g><path fill="none" stroke="none"/><text fill="#000000" stroke="none" font-family="Arial" font-size="13px" font-style="normal" font-weight="normal" text-decoration="none" x="149" y="169">from</text></g></g><g transform="translate(-14,-22) scale(1,1)"><g><path fill="none" stroke="none"/><text fill="#000000" stroke="none" font-family="Arial" font-size="13px" font-style="normal" font-weight="normal" text-decoration="none" x="149" y="266">gather</text></g></g><g transform="translate(-14,-22) scale(1,1)"><g><path fill="none" stroke="none"/><text fill="#000000" stroke="none" font-family="Arial" font-size="13px" font-style="normal" font-weight="normal" text-decoration="none" x="205" y="306">belongs to</text></g></g><g transform="translate(-14,-22) scale(1,1)"><g><path fill="none" stroke="none"/><text fill="#000000" stroke="none" font-family="Arial" font-size="13px" font-style="normal" font-weight="normal" text-decoration="none" x="189" y="498">subscribes to</text></g></g><g transform="translate(-14,-22) scale(1,1)"><g><path fill="none" stroke="none"/><text fill="#000000" stroke="none" font-family="Arial" font-size="13px" font-style="normal" font-weight="normal" text-decoration="none" x="93" y="578">warns</text></g></g><g transform="translate(-14,-22) scale(1,1)"><g><path fill="none" stroke="none"/><text fill="#000000" stroke="none" font-family="Arial" font-size="13px" font-style="normal" font-weight="normal" text-decoration="none" x="37" y="282">exploits</text></g></g><g transform="translate(-14,-22) scale(1,1)"><g><path fill="none" stroke="none"/><text fill="#000000" stroke="none" font-family="Arial" font-size="13px" font-style="normal" font-weight="normal" text-decoration="none" x="437" y="82">uses</text></g></g><g transform="translate(-14,-22) scale(1,1)"><g><path fill="none" stroke="none"/><text fill="#000000" stroke="none" font-family="Arial" font-size="13px" font-style="normal" font-weight="normal" text-decoration="none" x="485" y="146">uses</text></g></g><g transform="translate(-14,-22) scale(1,1)"><g><path fill="none" stroke="none"/><text fill="#000000" stroke="none" font-family="Arial" font-size="13px" font-style="normal" font-weight="normal" text-decoration="none" x="509" y="322">uses</text></g></g><g transform="translate(-14,-22) scale(1,1)"><g><path fill="none" stroke="none"/><text fill="#000000" stroke="none" font-family="Arial" font-size="13px" font-style="normal" font-weight="normal" text-decoration="none" x="493" y="506">enrolls</text></g></g><g transform="translate(-14,-22) scale(1,1)"><g><path fill="none" stroke="none"/><text fill="#000000" stroke="none" font-family="Arial" font-size="13px" font-style="normal" font-weight="normal" text-decoration="none" x="501" y="410">organizes</text></g></g></g></svg>